<svg width="16" height="19" viewBox="0 0 16 19" fill="none" xmlns="http://www.w3.org/2000/svg">
<path d="M2.28571 16.2482L8 13.9115L13.7143 16.2482V2.17367H2.28571V16.2482ZM1.6 18.9109C1.21905 19.0558 0.857143 19.0239 0.514286 18.8153C0.171428 18.6073 0 18.3041 0 17.9056V2.17367C0 1.57591 0.224 1.06401 0.672 0.637972C1.11924 0.212657 1.65714 0 2.28571 0H13.7143C14.3429 0 14.8811 0.212657 15.3291 0.637972C15.7764 1.06401 16 1.57591 16 2.17367V17.9056C16 18.3041 15.8286 18.6073 15.4857 18.8153C15.1429 19.0239 14.781 19.0558 14.4 18.9109L8 16.3025L1.6 18.9109ZM2.28571 2.17367H13.7143H8H2.28571Z" fill="#403E3E"/>
</svg>
