<svg width="11" height="11" viewBox="0 0 11 11" fill="none" xmlns="http://www.w3.org/2000/svg">
<path d="M7.91569 3.93144C7.95503 3.97073 7.98623 4.01739 8.00752 4.06876C8.02881 4.12012 8.03977 4.17517 8.03977 4.23077C8.03977 4.28637 8.02881 4.34142 8.00752 4.39278C7.98623 4.44414 7.95503 4.4908 7.91569 4.5301L4.95415 7.49163C4.91486 7.53097 4.8682 7.56218 4.81684 7.58347C4.76548 7.60476 4.71042 7.61572 4.65482 7.61572C4.59923 7.61572 4.54417 7.60476 4.49281 7.58347C4.44145 7.56218 4.39479 7.53097 4.3555 7.49163L3.08627 6.2224C3.00688 6.14302 2.96228 6.03535 2.96228 5.92308C2.96228 5.81081 3.00688 5.70314 3.08627 5.62375C3.16565 5.54436 3.27332 5.49976 3.38559 5.49976C3.49786 5.49976 3.60553 5.54436 3.68492 5.62375L4.65482 6.59418L7.31704 3.93144C7.35633 3.89211 7.40299 3.8609 7.45435 3.83961C7.50571 3.81832 7.56076 3.80736 7.61636 3.80736C7.67196 3.80736 7.72701 3.81832 7.77838 3.83961C7.82974 3.8609 7.8764 3.89211 7.91569 3.93144ZM11.001 5.5C11.001 6.5878 10.6784 7.65116 10.0741 8.55563C9.46971 9.4601 8.61073 10.1651 7.60574 10.5813C6.60074 10.9976 5.49488 11.1065 4.42798 10.8943C3.36109 10.6821 2.38108 10.1583 1.61189 9.38909C0.842703 8.6199 0.318879 7.63989 0.10666 6.573C-0.105559 5.5061 0.00335963 4.40023 0.419642 3.39524C0.835923 2.39025 1.54087 1.53126 2.44534 0.926917C3.34981 0.322569 4.41318 0 5.50098 0C6.9592 0.0015399 8.35725 0.581497 9.38836 1.61261C10.4195 2.64373 10.9994 4.04178 11.001 5.5ZM10.1548 5.5C10.1548 4.57956 9.88188 3.67978 9.37051 2.91446C8.85914 2.14914 8.13231 1.55265 7.28193 1.20041C6.43155 0.848168 5.49582 0.756006 4.59306 0.935576C3.6903 1.11515 2.86106 1.55838 2.21021 2.20923C1.55936 2.86009 1.11612 3.68932 0.936555 4.59208C0.756985 5.49484 0.849147 6.43057 1.20139 7.28095C1.55362 8.13133 2.15012 8.85816 2.91544 9.36953C3.68076 9.8809 4.58053 10.1538 5.50098 10.1538C6.73482 10.1524 7.91774 9.66168 8.7902 8.78922C9.66266 7.91676 10.1534 6.73385 10.1548 5.5Z" fill="#807C7C"/>
</svg>
