<svg width="10" height="11" viewBox="0 0 10 11" fill="none" xmlns="http://www.w3.org/2000/svg">
<path d="M9.16764 0.846154H7.91764V0.423077C7.91764 0.31087 7.87374 0.203259 7.7956 0.123916C7.71746 0.044574 7.61148 0 7.50098 0C7.39047 0 7.28449 0.044574 7.20635 0.123916C7.12821 0.203259 7.08431 0.31087 7.08431 0.423077V0.846154H2.91764V0.423077C2.91764 0.31087 2.87374 0.203259 2.7956 0.123916C2.71746 0.044574 2.61148 0 2.50098 0C2.39047 0 2.28449 0.044574 2.20635 0.123916C2.12821 0.203259 2.08431 0.31087 2.08431 0.423077V0.846154H0.83431C0.613296 0.846154 0.401334 0.935302 0.245054 1.09399C0.0887739 1.25267 0.000976563 1.46789 0.000976562 1.69231V10.1538C0.000976563 10.3783 0.0887739 10.5935 0.245054 10.7522C0.401334 10.9109 0.613296 11 0.83431 11H9.16764C9.38866 11 9.60062 10.9109 9.7569 10.7522C9.91318 10.5935 10.001 10.3783 10.001 10.1538V1.69231C10.001 1.46789 9.91318 1.25267 9.7569 1.09399C9.60062 0.935302 9.38866 0.846154 9.16764 0.846154ZM2.08431 1.69231V2.11538C2.08431 2.22759 2.12821 2.3352 2.20635 2.41455C2.28449 2.49389 2.39047 2.53846 2.50098 2.53846C2.61148 2.53846 2.71746 2.49389 2.7956 2.41455C2.87374 2.3352 2.91764 2.22759 2.91764 2.11538V1.69231H7.08431V2.11538C7.08431 2.22759 7.12821 2.3352 7.20635 2.41455C7.28449 2.49389 7.39047 2.53846 7.50098 2.53846C7.61148 2.53846 7.71746 2.49389 7.7956 2.41455C7.87374 2.3352 7.91764 2.22759 7.91764 2.11538V1.69231H9.16764V3.38462H0.83431V1.69231H2.08431ZM9.16764 10.1538H0.83431V4.23077H9.16764V10.1538ZM7.17077 5.62375C7.20951 5.66304 7.24024 5.7097 7.26121 5.76106C7.28218 5.81242 7.29297 5.86748 7.29297 5.92308C7.29297 5.97868 7.28218 6.03373 7.26121 6.08509C7.24024 6.13645 7.20951 6.18311 7.17077 6.2224L4.67077 8.76087C4.63207 8.8002 4.58612 8.83141 4.53553 8.8527C4.48495 8.87399 4.43073 8.88495 4.37598 8.88495C4.32122 8.88495 4.267 8.87399 4.21642 8.8527C4.16584 8.83141 4.11988 8.8002 4.08118 8.76087L2.83118 7.49163C2.753 7.41225 2.70908 7.30458 2.70908 7.19231C2.70908 7.08004 2.753 6.97237 2.83118 6.89298C2.90937 6.81359 3.01541 6.769 3.12598 6.769C3.23654 6.769 3.34258 6.81359 3.42077 6.89298L4.37598 7.86341L6.58118 5.62375C6.61988 5.58441 6.66584 5.55321 6.71642 5.53192C6.767 5.51063 6.82122 5.49967 6.87598 5.49967C6.93073 5.49967 6.98495 5.51063 7.03553 5.53192C7.08612 5.55321 7.13207 5.58441 7.17077 5.62375Z" fill="#807C7C"/>
</svg>
