<svg width="16" height="16" viewBox="0 0 24 24" fill="none" xmlns="http://www.w3.org/2000/svg">
  <circle cx="12" cy="12" r="9" stroke="currentColor" stroke-width="1.5"/>
  <path d="M12 7V12L16 14" stroke="currentColor" stroke-width="1.5" stroke-linecap="round" stroke-linejoin="round"/>
</svg>
<svg width="16" height="16" viewBox="0 0 16 16" fill="none" xmlns="http://www.w3.org/2000/svg">
<rect width="16" height="16" rx="5" fill="#403E3E"/>
<path d="M9.02 9.82L7.6 8.4V6.4H8.4V8.07L9.58 9.25L9.02 9.82ZM8 12C7.44667 12 6.92667 11.8949 6.44 11.6848C5.95333 11.4749 5.53 11.19 5.17 10.83C4.81 10.47 4.52507 10.0467 4.3152 9.56C4.10507 9.07333 4 8.55333 4 8C4 7.44667 4.10507 6.92667 4.3152 6.44C4.52507 5.95333 4.81 5.53 5.17 5.17C5.53 4.81 5.95333 4.52493 6.44 4.3148C6.92667 4.10493 7.44667 4 8 4C8.55333 4 9.07333 4.10493 9.56 4.3148C10.0467 4.52493 10.47 4.81 10.83 5.17C11.19 5.53 11.4749 5.95333 11.6848 6.44C11.8949 6.92667 12 7.44667 12 8C12 8.55333 11.8949 9.07333 11.6848 9.56C11.4749 10.0467 11.19 10.47 10.83 10.83C10.47 11.19 10.0467 11.4749 9.56 11.6848C9.07333 11.8949 8.55333 12 8 12ZM8 11.2C8.89333 11.2 9.65 10.89 10.27 10.27C10.89 9.65 11.2 8.89333 11.2 8C11.2 7.10667 10.89 6.35 10.27 5.73C9.65 5.11 8.89333 4.8 8 4.8C7.10667 4.8 6.35 5.11 5.73 5.73C5.11 6.35 4.8 7.10667 4.8 8C4.8 8.89333 5.11 9.65 5.73 10.27C6.35 10.89 7.10667 11.2 8 11.2Z" fill="#FFFDFC"/>
</svg>
