<svg width="14" height="14" viewBox="0 0 14 14" fill="none" xmlns="http://www.w3.org/2000/svg">
<g id="Group 2085669035">
<path id="Vector" d="M1 13H4.13144L12.3515 4.77998C12.5571 4.57437 12.7202 4.33027 12.8315 4.06162C12.9427 3.79297 13 3.50504 13 3.21426C13 2.92348 12.9427 2.63555 12.8315 2.3669C12.7202 2.09825 12.5571 1.85416 12.3515 1.64854C12.1458 1.44293 11.9017 1.27983 11.6331 1.16855C11.3645 1.05727 11.0765 1 10.7857 1C10.495 1 10.207 1.05727 9.93838 1.16855C9.66973 1.27983 9.42563 1.44293 9.22002 1.64854L1 9.86856V13Z" stroke="#807C7C" stroke-width="2" stroke-linecap="round" stroke-linejoin="round"/>
<path id="Vector_2" d="M8.43701 2.43164L11.5684 5.56308" stroke="#807C7C" stroke-width="2" stroke-linecap="round" stroke-linejoin="round"/>
</g>
</svg>
