<svg width="21" height="21" viewBox="0 0 21 21" fill="none" xmlns="http://www.w3.org/2000/svg">
<circle cx="10.5" cy="10.5" r="10.5" fill="#F76241"/>
<path d="M10.7386 6.34863C11.2323 6.34863 11.629 6.7554 11.6167 7.24896L11.5059 11.6806C11.4954 12.0969 11.155 12.429 10.7386 12.429V12.429C10.3222 12.429 9.98173 12.0969 9.97132 11.6806L9.8605 7.24896C9.84815 6.75541 10.2449 6.34863 10.7386 6.34863V6.34863ZM10.7503 15.1393C10.2006 15.1393 9.75611 14.6836 9.7678 14.1319C9.75611 13.5803 10.2006 13.1365 10.7503 13.1365C11.2649 13.1365 11.7211 13.5803 11.7211 14.1319C11.7211 14.6836 11.2649 15.1393 10.7503 15.1393Z" fill="white"/>
</svg>
