<svg width="7" height="11" viewBox="0 0 7 11" fill="none" xmlns="http://www.w3.org/2000/svg">
<path d="M6.2232 0H0.778754C0.572475 0 0.374644 0.0927158 0.228782 0.257751C0.0829207 0.422786 0.000976563 0.646622 0.000976562 0.880018V10.5602C0.00101109 10.6387 0.0196178 10.7158 0.0548658 10.7835C0.0901138 10.8511 0.140719 10.9068 0.201429 10.9449C0.26214 10.9829 0.330744 11.0019 0.400122 10.9998C0.4695 10.9978 0.537124 10.9747 0.595976 10.9331L3.50098 8.87883L6.40646 10.9331C6.46531 10.9746 6.53288 10.9975 6.60219 10.9995C6.67149 11.0015 6.74001 10.9825 6.80064 10.9445C6.86128 10.9064 6.91182 10.8508 6.94704 10.7832C6.98227 10.7156 7.00089 10.6387 7.00098 10.5602V0.880018C7.00098 0.646622 6.91903 0.422786 6.77317 0.257751C6.62731 0.0927158 6.42948 0 6.2232 0ZM6.2232 9.76655L3.7066 7.98726C3.64479 7.94355 3.57338 7.92038 3.50049 7.92038C3.4276 7.92038 3.35619 7.94355 3.29438 7.98726L0.778754 9.76655V0.880018H6.2232V9.76655Z" fill="#807C7C"/>
</svg>
