<svg width="17" height="21" viewBox="0 0 17 21" fill="none" xmlns="http://www.w3.org/2000/svg">
<path d="M4.5 7.5H3.5C2.96957 7.5 2.46086 7.71071 2.08579 8.08579C1.71071 8.46086 1.5 8.96957 1.5 9.5V17.5C1.5 18.0304 1.71071 18.5391 2.08579 18.9142C2.46086 19.2893 2.96957 19.5 3.5 19.5H13.5C14.0304 19.5 14.5391 19.2893 14.9142 18.9142C15.2893 18.5391 15.5 18.0304 15.5 17.5V9.5C15.5 8.96957 15.2893 8.46086 14.9142 8.08579C14.5391 7.71071 14.0304 7.5 13.5 7.5H12.5" stroke="#434343" stroke-width="2" stroke-linecap="round" stroke-linejoin="round"/>
<path d="M8.5 12.5V1.5" stroke="#434343" stroke-width="2" stroke-linecap="round" stroke-linejoin="round"/>
<path d="M5.5 4.5L8.5 1.5L11.5 4.5" stroke="#434343" stroke-width="2" stroke-linecap="round" stroke-linejoin="round"/>
</svg>
