<svg width="42" height="42" viewBox="0 0 42 42" fill="none" xmlns="http://www.w3.org/2000/svg">
<path d="M16.911 4.76533C19.0612 2.25954 22.9388 2.25954 25.089 4.76533V4.76533C26.2064 6.0676 27.8773 6.75972 29.5883 6.62902V6.62902C32.8805 6.37753 35.6225 9.11946 35.371 12.4117V12.4117C35.2403 14.1227 35.9324 15.7936 37.2347 16.911V16.911C39.7405 19.0612 39.7405 22.9388 37.2347 25.089V25.089C35.9324 26.2064 35.2403 27.8773 35.371 29.5883V29.5883C35.6225 32.8805 32.8805 35.6225 29.5883 35.371V35.371C27.8773 35.2403 26.2064 35.9324 25.089 37.2347V37.2347C22.9388 39.7405 19.0612 39.7405 16.911 37.2347V37.2347C15.7936 35.9324 14.1227 35.2403 12.4117 35.371V35.371C9.11946 35.6225 6.37753 32.8805 6.62902 29.5883V29.5883C6.75972 27.8773 6.0676 26.2064 4.76533 25.089V25.089C2.25954 22.9388 2.25954 19.0612 4.76533 16.911V16.911C6.0676 15.7936 6.75972 14.1227 6.62902 12.4117V12.4117C6.37753 9.11946 9.11946 6.37753 12.4117 6.62902V6.62902C14.1227 6.75972 15.7936 6.0676 16.911 4.76533V4.76533Z" fill="#FE902F"/>
<path d="M25.8617 16.6727C26.171 16.3518 26.6816 16.3425 27.0027 16.6517C27.3238 16.961 27.3335 17.4721 27.0242 17.7932L19.7674 25.3275C19.6152 25.4855 19.4049 25.5745 19.1856 25.5745C18.9664 25.5745 18.7565 25.4854 18.6043 25.3275L14.9759 21.5603C14.6667 21.2393 14.676 20.7281 14.997 20.4188C15.318 20.1096 15.8291 20.1189 16.1385 20.4399L19.1856 23.6032L25.8617 16.6727Z" fill="#140805"/>
</svg>
